#!OML:ASF H:\Terrain\Patient Classification 1\Animal2\Wednesday\Animal2.ASF
:FULLY-SPECIFIED
:DEGREES
167
root 8.62416 16.643 -22.515 15.2863 3.8885 -1.48915
lowerback 15.9666 -0.68618 3.57573
upperback 9.30674 -0.432622 -1.89556
thorax 0.917383 -0.0162525 -3.94958
lowerneck 0.193471 5.28434 15.9501
upperneck 8.71075 7.9421 -15.5697
head 3.78966 3.943 -7.17769
rclavicle 8.34896e-015 7.95139e-016
rhumerus 16.3327 5.48027 -39.2668
rradius 41.1123
rwrist -11.0121
rhand -31.6818 9.95982
rfingers 7.12502
rthumb -4.94153 -19.9626
lclavicle 8.34896e-015 7.95139e-016
lhumerus 31.7106 -45.6098 6.22068
lradius 105.765
lwrist 15.7823
lhand -12.6262 14.4857
lfingers 7.12502
lthumb 13.4535 44.0313
rfemur -28.0036 -0.354562 -2.13623
rtibia 33.1985
rfoot -15.1624 -6.92625
rtoes -34.3297
lfemur -35.4455 2.44037 2.29906
ltibia 36.2652
lfoot -16.9458 1.81874
ltoes -48.6911
168
root 8.61667 16.6245 -22.5289 15.3274 3.69405 -1.33814
lowerback 16.1135 -0.645148 3.41843
upperback 9.27458 -0.396233 -1.92408
thorax 0.808777 -0.0065571 -3.89588
lowerneck 0.121326 5.29625 15.9294
upperneck 8.67848 7.93673 -15.4683
head 3.7872 3.93996 -7.13849
rclavicle 7.95139e-015 -2.18663e-014
rhumerus 16.5449 6.06191 -39.0385
rradius 42.4345
rwrist -12.5991
rhand -31.7187 10.4395
rfingers 7.12502
rthumb -4.97708 -19.482
lclavicle 7.95139e-015 -2.18663e-014
lhumerus 31.0378 -46.0251 6.32234
lradius 105.772
lwrist 15.46
lhand -12.5939 14.0503
lfingers 7.12502
lthumb 13.4846 43.5938
rfemur -28.2985 -0.289556 -2.34418
rtibia 33.4892
rfoot -15.4727 -7.03119
rtoes -34.6376
lfemur -35.6294 2.61076 2.12566
ltibia 36.5886
lfoot -17.2798 1.70225
ltoes -48.5569
169
root 8.61158 16.6056 -22.5392 15.3454 3.6876 -1.40098
lowerback 16.2232 -0.635927 3.59566
upperback 9.25635 -0.357357 -1.88525
thorax 0.736908 0.0166358 -3.9617
lowerneck 0.0622447 5.27091 16.0501
upperneck 8.63678 7.88572 -15.4474
head 3.7809 3.91728 -7.1534
rclavicle 1.90833e-014 1.98785e-014
rhumerus 16.6335 6.60106 -38.7365
rradius 43.6964
rwrist -13.7404
rhand -31.6274 10.9089
rfingers 7.12502
rthumb -4.88895 -19.0147
lclavicle 1.90833e-014 1.98785e-014
lhumerus 30.7447 -46.5933 6.31709
lradius 105.785
lwrist 15.521
lhand -12.2695 13.8722
lfingers 7.12502
lthumb 13.7973 43.3947
rfemur -28.4941 -0.21179 -2.28725
rtibia 33.7823
rfoot -16.2455 -7.08323
rtoes -33.1725
lfemur -35.864 2.69827 2.23212
ltibia 36.9184
lfoot -17.5862 1.45192
ltoes -48.0436
170
root 8.60905 16.5855 -22.5446 15.3867 3.77549 -1.54722
lowerback 16.2118 -0.639552 3.90055
upperback 9.26845 -0.321254 -1.80805
thorax 0.76172 0.0449947 -4.05892
lowerneck 0.0779152 5.21143 16.142
upperneck 8.52609 7.78681 -15.3594
head 3.72993 3.87515 -7.14591
rclavicle 1.47101e-014 -1.27222e-014
rhumerus 16.6275 7.29058 -38.3172
rradius 45.05
rwrist -14.7567
rhand -31.5476 11.0219
rfingers 7.12502
rthumb -4.81187 -18.9034
lclavicle 1.47101e-014 -1.27222e-014
lhumerus 30.5224 -47.1205 6.33534
lradius 105.798
lwrist 15.5033
lhand -11.4943 14.0605
lfingers 7.12502
lthumb 14.5443 43.5306
rfemur -28.6339 -0.239332 -2.1295
rtibia 34.0291
rfoot -16.9723 -6.72979
rtoes -30.3305
lfemur -36.1559 2.76141 2.441
ltibia 37.2566
lfoot -17.6464 1.33408
ltoes -47.9541
171
root 8.60694 16.5667 -22.5474 15.3898 3.6956 -1.33505
lowerback 16.2288 -0.621919 3.73183
upperback 9.3151 -0.320373 -1.82526
thorax 0.801632 0.0413541 -3.9814
lowerneck 0.13796 5.16963 16.1054
upperneck 8.36646 7.71481 -15.2465
head 3.65535 3.84451 -7.10759
rclavicle 7.7526e-015 1.59028e-015
rhumerus 16.6509 8.29389 -37.791
rradius 46.5957
rwrist -15.854
rhand -31.4063 11.017
rfingers 7.12502
rthumb -4.6755 -18.9114
lclavicle 7.7526e-015 1.59028e-015
lhumerus 29.9515 -47.5323 6.44315
lradius 105.878
lwrist 15.4705
lhand -10.8603 14.1945
lfingers 7.12502
lthumb 15.155 43.6196
rfemur -28.7184 -0.27681 -2.3909
rtibia 34.2084
rfoot -17.3278 -6.57746
rtoes -29.6647
lfemur -36.3234 2.86075 2.19957
ltibia 37.6319
lfoot -17.7271 1.39581
ltoes -48.046
172
root 8.60395 16.5442 -22.5498 15.2891 3.45733 -1.1401
lowerback 16.3792 -0.569783 3.50548
upperback 9.38593 -0.279362 -1.87396
thorax 0.801703 0.0555757 -3.9111
lowerneck 0.182229 5.12679 16.1723
upperneck 8.23599 7.65487 -15.3052
head 3.60422 3.81738 -7.14276
rclavicle 7.35503e-015 -3.18055e-015
rhumerus 16.6933 9.36204 -37.2497
rradius 48.1972
rwrist -16.9085
rhand -30.9945 11.0697
rfingers 7.12502
rthumb -4.2778 -18.8671
lclavicle 7.35503e-015 -3.18055e-015
lhumerus 29.4256 -47.971 6.43693
lradius 105.902
lwrist 15.4922
lhand -11.0418 14.2169
lfingers 7.12502
lthumb 14.9803 43.655
rfemur -28.7464 -0.244751 -2.62639
rtibia 34.361
rfoot -17.6373 -6.82116
rtoes -31.7404
lfemur -36.3076 3.09664 1.9435
ltibia 38.0325
lfoot -18.0795 1.45022
ltoes -48.1882
173
root 8.60103 16.5158 -22.5557 15.149 3.35995 -1.33575
lowerback 16.6441 -0.537281 3.75016
upperback 9.40355 -0.196262 -1.83456
thorax 0.693318 0.103067 -4.02265
lowerneck 0.335893 4.995 16.4134
upperneck 8.11202 7.4907 -15.4157
head 3.52756 3.74694 -7.2342
rclavicle 1.25234e-014 -1.86858e-014
rhumerus 16.6017 10.4097 -36.7627
rradius 49.7844
rwrist -17.8294
rhand -30.4588 10.7299
rfingers 7.12502
rthumb -3.76055 -19.2166
lclavicle 1.25234e-014 -1.86858e-014
lhumerus 29.1626 -48.551 6.28298
lradius 105.763
lwrist 15.0829
lhand -11.2865 14.0027
lfingers 7.12502
lthumb 14.7445 43.4583
rfemur -28.7259 -0.201421 -2.37642
rtibia 34.5241
rfoot -18.2091 -6.9714
rtoes -32.4337
lfemur -36.3582 3.42059 2.14593
ltibia 38.4382
lfoot -18.3886 1.39566
ltoes -48.5676
174
root 8.59896 16.4899 -22.5654 15.1465 3.34625 -1.39769
lowerback 16.7476 -0.516839 3.85952
upperback 9.42462 -0.151045 -1.7949
thorax 0.667796 0.128519 -4.0505
lowerneck 0.362204 4.92324 16.6246
upperneck 8.11073 7.39219 -15.4166
head 3.51453 3.70568 -7.27706
rclavicle 4.77083e-015 -1.61016e-014
rhumerus 16.528 11.4992 -36.252
rradius 51.4444
rwrist -18.6812
rhand -30.0546 10.2393
rfingers 7.12502
rthumb -3.37023 -19.7138
lclavicle 4.77083e-015 -1.61016e-014
lhumerus 28.9204 -48.9941 6.20635
lradius 105.529
lwrist 14.5759
lhand -11.077 13.6292
lfingers 7.12502
lthumb 14.9463 43.0699
rfemur -28.8601 -0.246968 -2.27437
rtibia 34.7318
rfoot -18.6505 -7.16937
rtoes -32.0342
lfemur -36.6453 3.62196 2.22366
ltibia 38.8716
lfoot -18.4897 1.14535
ltoes -48.4294
175
root 8.59705 16.4703 -22.5745 15.2592 3.16133 -1.25079
lowerback 16.6835 -0.459914 3.65137
upperback 9.50313 -0.108883 -1.80746
thorax 0.787313 0.145789 -3.9516
lowerneck 0.132291 4.99756 16.6273
upperneck 8.19107 7.4566 -15.3021
head 3.58468 3.73163 -7.22962
rclavicle -8.34896e-015 -7.55382e-015
rhumerus 16.5921 12.4681 -35.8285
rradius 53.1104
rwrist -19.1541
rhand -29.5949 11.0977
rfingers 7.12502
rthumb -2.92622 -18.8619
lclavicle -8.34896e-015 -7.55382e-015
lhumerus 28.4287 -49.2142 6.42013
lradius 105.324
lwrist 14.3935
lhand -10.9991 13.5389
lfingers 7.12502
lthumb 15.0214 42.974
rfemur -29.2209 -0.263934 -2.45988
rtibia 34.9646
rfoot -18.5176 -7.54715
rtoes -33.0014
lfemur -36.9697 3.81596 2.04274
ltibia 39.3322
lfoot -18.7336 0.930261
ltoes -47.9709
176
root 8.59742 16.4472 -22.5833 15.3016 2.93189 -1.2122
lowerback 16.6862 -0.416021 3.58126
upperback 9.61362 -0.0632157 -1.8312
thorax 0.908656 0.170795 -3.94402
lowerneck 0.00470043 5.05465 16.5831
upperneck 8.09698 7.50354 -15.2448
head 3.58307 3.75006 -7.19611
rclavicle -1.19271e-015 1.11319e-014
rhumerus 16.7577 13.3347 -35.5092
rradius 54.5808
rwrist -19.4348
rhand -28.7297 12.9288
rfingers 7.12502
rthumb -2.09064 -17.0407
lclavicle -1.19271e-015 1.11319e-014
lhumerus 27.9135 -49.4459 6.67516
lradius 105.092
lwrist 14.4375
lhand -11.1568 13.4944
lfingers 7.12502
lthumb 14.8694 42.9408
rfemur -29.5284 -0.287459 -2.5184
rtibia 35.1904
rfoot -19.2122 -7.26549
rtoes -31.0346
lfemur -37.1947 4.10922 1.96114
ltibia 39.8098
lfoot -19.0501 0.913971
ltoes -47.9731
